<?xml version="1.0" encoding="UTF-8" standalone="no"?>
<!-- Created with Inkscape (http://www.inkscape.org/) -->

<svg
   version="1.1"
   id="svg1"
   width="225"
   height="225"
   viewBox="0 0 225 225"
   sodipodi:docname="boneco.jpg"
   xmlns:inkscape="http://www.inkscape.org/namespaces/inkscape"
   xmlns:sodipodi="http://sodipodi.sourceforge.net/DTD/sodipodi-0.dtd"
   xmlns="http://www.w3.org/2000/svg"
   xmlns:svg="http://www.w3.org/2000/svg">
  <defs
     id="defs1" />
  <sodipodi:namedview
     id="namedview1"
     pagecolor="#ffffff"
     bordercolor="#999999"
     borderopacity="1"
     inkscape:showpageshadow="2"
     inkscape:pageopacity="0"
     inkscape:pagecheckerboard="0"
     inkscape:deskcolor="#d1d1d1">
    <inkscape:page
       x="0"
       y="0"
       width="225"
       height="225"
       id="page2"
       margin="0"
       bleed="0" />
  </sodipodi:namedview>
  <g
     inkscape:groupmode="layer"
     inkscape:label="Image"
     id="g1">
    <g
       id="g2"
       transform="translate(-0.78859831,7.4916518)">
      <path
         style="fill:#fcfcfc"
         d="M 7.0973544,114.27435 V 16.560493 H 112.30285 217.50835 V 114.27435 211.9882 H 112.30285 7.0973544 Z M 162.09236,187.48559 c 2.53772,-1.5598 4.61708,-3.8894 6.26651,-7.02063 2.19886,-4.17427 2.43879,-5.53128 2.19622,-12.42138 -0.25195,-7.15645 -0.42251,-7.75504 -2.27979,-8.00094 -1.82523,-0.24166 -2.03783,-0.88685 -2.34196,-7.10705 -0.36992,-7.56558 -1.76569,-10.17221 -7.33056,-13.68993 -5.66726,-3.58244 -15.50155,-1.87716 -19.46711,3.37563 -0.95897,1.27026 -2.41819,1.61864 -6.77991,1.61864 h -5.55793 v -5.92857 c 0,-5.25556 0.27467,-6.16761 2.41956,-8.03425 2.61738,-2.27784 5.06172,-6.9411 5.06172,-9.65662 0,-0.93121 0.5678,-2.22047 1.26177,-2.86502 1.55308,-1.44249 2.83475,-11.7494 1.60328,-12.89319 -0.50521,-0.46923 -0.65132,-3.89784 -0.34046,-7.989155 0.47681,-6.275331 0.28411,-7.666895 -1.54868,-11.18333 -1.15129,-2.208897 -2.91413,-4.424212 -3.91742,-4.922921 -1.20583,-0.599387 -1.63804,-1.451431 -1.27506,-2.513634 0.47213,-1.381635 -0.3633,-1.799632 -5.9597,-2.981866 -3.57984,-0.756237 -10.3336,-1.450769 -15.00835,-1.543403 -9.994208,-0.198044 -11.299982,0.428271 -17.288062,8.292234 l -3.817735,5.013714 -0.179242,14.054501 c -0.130673,10.24616 0.147847,14.5252 1.027866,15.79163 0.663909,0.95542 1.498271,3.19391 1.854138,4.97442 0.355867,1.7805 2.142326,5.05673 3.969908,7.2805 2.658623,3.23496 3.371133,4.93182 3.564268,8.48837 0.344062,6.33586 0.10229,6.61659 -5.698445,6.61659 -9.811551,0 -18.197599,6.62734 -20.332631,16.0685 -0.550226,2.43311 -0.232494,2.81154 4.796961,5.71337 6.288033,3.62799 8.978041,4.76963 16.608137,7.04851 7.635747,2.28056 23.348577,2.97547 31.432477,1.39011 l 6.18317,-1.21259 1.16215,4.21159 c 1.36123,4.93304 4.52172,8.72706 9.26235,11.11901 5.14436,2.59567 15.33765,2.05101 20.45256,-1.09284 z m -10.89181,-30.75102 c -0.67228,-1.72677 -2.65052,-4.60784 -4.39608,-6.40239 -1.74557,-1.79454 -3.17376,-3.69397 -3.17376,-4.22094 0,-1.31934 5.00375,-3.60845 7.88767,-3.60845 1.30327,0 3.72735,1.12678 5.38685,2.50395 2.76571,2.2952 3.04862,3.01932 3.39334,8.68568 l 0.37608,6.18172 h -4.12589 c -3.89134,0 -4.19537,-0.17847 -5.34821,-3.13957 z"
         id="path9" />
      <path
         style="fill:#f9b78a"
         d="m 136.24631,184.5981 c -1.5963,-1.68862 -2.88956,-3.54518 -2.87392,-4.1257 0.0156,-0.58052 0.49279,-0.27378 1.06033,0.68165 0.56754,0.95542 2.10635,2.81199 3.41958,4.12569 1.31323,1.31371 2.14214,2.38857 1.84203,2.38857 -0.30012,0 -1.85173,-1.3816 -3.44802,-3.07021 z m 27.02276,1.87371 c 0,-0.18037 0.73644,-0.86436 1.63653,-1.52 1.48322,-1.08038 1.51629,-1.04966 0.35308,0.32793 -1.22167,1.44682 -1.98961,1.90693 -1.98961,1.19207 z m -31.64778,-11.83202 c 0,-1.19428 0.21226,-1.68285 0.47168,-1.08571 0.25943,0.59714 0.25943,1.57428 0,2.17142 -0.25942,0.59714 -0.47168,0.10857 -0.47168,-1.08571 z m 38.38425,-5.80242 c -0.17935,-7.51289 -0.31198,-7.9956 -2.29446,-8.35025 l -2.10411,-0.37641 2.13346,-0.11828 c 2.83746,-0.15732 3.14684,0.90352 2.77302,9.50856 l -0.31756,7.31022 z m -65.82689,6.07766 c 0.67507,-0.25091 1.48164,-0.22005 1.79239,0.0686 0.31075,0.28862 -0.24158,0.4939 -1.2274,0.45619 -1.08941,-0.0417 -1.311,-0.24749 -0.56499,-0.52476 z M 71.697221,161.97318 c 0.04487,-1.01183 0.266465,-1.21764 0.564993,-0.52476 0.27014,0.627 0.236917,1.37614 -0.07383,1.66476 -0.310746,0.28861 -0.53177,-0.22438 -0.491165,-1.14 z m 82.466899,-1.85374 c 1.4215,-0.19964 3.52561,-0.19431 4.6758,0.0119 1.15019,0.20616 -0.0129,0.36951 -2.58455,0.36299 -2.57169,-0.007 -3.51275,-0.1752 -2.09125,-0.37485 z m -49.15528,-10.85438 c -4.83375,-1.19069 -6.670556,-4.06247 -6.810707,-10.64827 -0.09973,-4.68626 -0.512728,-5.80223 -3.486388,-9.42052 -1.855293,-2.25749 -3.655806,-5.5613 -4.001142,-7.3418 -0.345335,-1.78051 -1.04536,-3.72586 -1.555612,-4.323 -0.63918,-0.74802 -0.567331,-1.08571 0.231005,-1.08571 0.688841,0 0.965148,-0.68756 0.68136,-1.69549 -0.262555,-0.93251 -0.02813,-1.83457 0.520941,-2.00456 0.597555,-0.185 0.921253,-2.55527 0.80635,-5.90448 -0.20321,-5.92319 1.801944,-11.201982 4.542906,-11.9597 0.771506,-0.213278 1.080413,-0.06746 0.686458,0.324029 -1.55372,1.544011 7.873069,4.563522 16.145669,5.171651 7.63043,0.56092 8.51193,0.82588 11.66112,3.50501 3.36301,2.86105 3.41749,2.87387 4.24748,0.99948 0.77397,-1.74787 0.8498,-1.69169 0.95435,0.70697 0.31047,7.12335 -0.29958,20.08992 -1.02904,21.87191 -0.45337,1.10753 -0.46543,2.0137 -0.0268,2.0137 1.33328,0 3.09759,-2.4699 2.45458,-3.43622 -0.3318,-0.49864 -0.19269,-0.90662 0.30914,-0.90662 0.50183,0 1.33509,-1.07485 1.85168,-2.38856 0.5166,-1.31371 0.97249,-1.94773 1.01309,-1.40893 0.1455,1.93065 -2.61276,6.87614 -4.98789,8.94316 -2.11499,1.84062 -2.44261,2.8793 -2.60272,8.25139 l -0.18316,6.14571 -0.32891,-5.93488 c -0.26031,-4.69695 -0.57822,-5.74272 -1.5241,-5.01361 -2.67724,2.06369 -19.3137,3.06352 -19.98217,1.20091 -0.18261,-0.50881 -1.15348,-0.72558 -2.1575,-0.48172 -1.04607,0.25407 -1.82548,0.007 -1.82548,-0.57775 0,-0.56162 -0.42082,-0.77957 -0.935158,-0.48433 -0.514338,0.29524 -0.93516,0.89665 -0.93516,1.33646 0,1.22146 6.409718,3.94511 12.157078,5.16585 6.38831,1.35688 14.0274,4.29347 14.0274,5.39235 0,3.85959 -11.275,6.11676 -19.91867,3.98757 z m 51.59483,-4.80799 c -1.16322,-1.3776 -1.13014,-1.40832 0.35307,-0.32793 0.90009,0.65563 1.63653,1.33963 1.63653,1.51999 0,0.71486 -0.76794,0.25475 -1.9896,-1.19206 z m -21.07743,-28.38231 c 0.58914,-1.15948 1.2192,-1.97065 1.40014,-1.8026 0.58041,0.53908 -0.87417,3.91074 -1.68714,3.91074 -0.43129,0 -0.30214,-0.94867 0.287,-2.10814 z m -47.769295,-3.53755 c 0.01038,-1.91085 0.201886,-2.59029 0.42557,-1.50987 0.223684,1.08043 0.215191,2.64385 -0.01887,3.47427 -0.234064,0.83043 -0.417078,-0.0536 -0.406698,-1.9644 z m 43.898995,-2.6057 c 0.0191,-1.43314 0.22865,-1.91427 0.46575,-1.06918 0.2371,0.84509 0.22151,2.01765 -0.0346,2.6057 -0.25616,0.58805 -0.45016,-0.10339 -0.4311,-1.53652 z m 5.28712,-2.17142 c -0.30421,-1.19428 -0.86942,-2.95313 -1.25602,-3.90856 -0.60093,-1.48513 -0.47355,-1.45168 0.87805,0.23057 0.86953,1.08223 1.43473,2.84108 1.25602,3.90855 -0.31414,1.87634 -0.34333,1.86867 -0.87805,-0.23056 z m -48.738146,-3.5439 c 0.330681,-1.17448 0.754582,-1.56819 0.988044,-0.91768 0.224887,0.62662 -0.03573,1.55227 -0.579158,2.05699 -0.693952,0.64454 -0.815657,0.30542 -0.408886,-1.13931 z m 42.378926,-1.10555 c -0.59191,-1.66579 -1.68591,-3.498681 -2.4311,-4.0731 -0.7452,-0.574419 -1.34152,-1.485109 -1.32517,-2.023756 0.0164,-0.538647 0.69251,-0.197647 1.50256,0.757778 1.85147,2.183745 4.33023,7.438688 3.75907,7.969188 -0.23604,0.21922 -0.91345,-0.96432 -1.50536,-2.63011 z M 99.678192,96.550025 c 0,-0.432989 0.841648,-0.582831 1.870318,-0.332981 1.02868,0.249849 1.87032,0.604112 1.87032,0.787252 0,0.18314 -0.84164,0.332982 -1.87032,0.332982 -1.02867,0 -1.870318,-0.354264 -1.870318,-0.787253 z m 6.312328,0.174276 c 1.15726,-0.207026 3.05096,-0.207026 4.20822,0 1.15726,0.207026 0.21041,0.37641 -2.10411,0.37641 -2.31452,0 -3.26137,-0.169384 -2.10411,-0.37641 z m 12.15708,-0.868568 c 1.15726,-0.207025 3.05096,-0.207025 4.20822,0 1.15726,0.207026 0.21041,0.376411 -2.10411,0.376411 -2.31452,0 -3.26137,-0.169385 -2.10411,-0.376411 z M 91.261753,82.243697 c 0,-0.180363 0.736438,-0.86436 1.63653,-1.519994 1.483215,-1.080385 1.516292,-1.049664 0.353074,0.327933 -1.221665,1.446814 -1.989604,1.906922 -1.989604,1.192061 z m 13.852057,-8.951074 c 0.67507,-0.250904 1.48164,-0.220047 1.79239,0.06857 0.31075,0.288617 -0.24158,0.493902 -1.2274,0.456188 -1.08941,-0.04168 -1.311,-0.24749 -0.56499,-0.524759 z"
         id="path8" />
      <path
         style="fill:#f79f76"
         d="m 106.92568,174.93312 c 0.64292,-0.24095 1.69498,-0.24095 2.3379,0 0.64292,0.24096 0.1169,0.4381 -1.16895,0.4381 -1.28584,0 -1.81187,-0.19714 -1.16895,-0.4381 z m 8.90182,-0.0267 c 0.90988,-0.22022 2.17235,-0.20574 2.80548,0.0322 0.63313,0.23792 -0.11131,0.4181 -1.65433,0.4004 -1.54301,-0.0177 -2.06103,-0.21236 -1.15115,-0.43258 z m 49.6263,-20.24371 c 0,-3.58284 0.16507,-5.04855 0.36683,-3.25713 0.20175,1.79142 0.20175,4.72284 0,6.51426 -0.20176,1.79142 -0.36683,0.32571 -0.36683,-3.25713 z M 76.299193,151.7291 c 0,-0.18036 0.736438,-0.86436 1.63653,-1.51999 1.483216,-1.08039 1.516293,-1.04966 0.353074,0.32793 -1.221664,1.44682 -1.989604,1.90692 -1.989604,1.19206 z m 29.749777,-2.00253 c 0.67507,-0.2509 1.48164,-0.22005 1.79239,0.0686 0.31075,0.28862 -0.24158,0.4939 -1.2274,0.45619 -1.08941,-0.0417 -1.311,-0.24749 -0.56499,-0.52476 z m 11.22192,0 c 0.67507,-0.2509 1.48164,-0.22005 1.79239,0.0686 0.31075,0.28862 -0.24158,0.4939 -1.2274,0.45619 -1.08941,-0.0417 -1.311,-0.24749 -0.56499,-0.52476 z m -17.332588,-2.22951 c -1.401975,-1.68367 -2.283887,-3.25713 -1.825593,-3.25713 0.22837,0 1.104551,0.97714 1.947071,2.17142 1.57652,2.23474 1.48872,3.01944 -0.121478,1.08571 z m 23.149998,0.43428 c -0.0171,-0.59714 0.38971,-1.08571 0.90405,-1.08571 0.51434,0 0.93516,-0.53815 0.93516,-1.19589 0,-1.42357 -6.85765,-4.24174 -14.0274,-5.7646 -5.74736,-1.22074 -12.157078,-3.94439 -12.157078,-5.16585 0,-0.43981 0.420822,-1.04122 0.93516,-1.33646 0.514338,-0.29524 0.935158,-0.0773 0.935158,0.48433 0,0.58515 0.77941,0.83182 1.82548,0.57775 1.00402,-0.24386 1.97489,-0.0271 2.1575,0.48172 0.66271,1.84657 17.29949,0.86697 19.948,-1.17457 0.90239,-0.69559 1.23061,0.50881 1.47346,5.40695 0.24722,4.98605 -0.0228,6.67315 -1.29296,8.07996 -0.90924,1.00704 -1.61891,1.30727 -1.63653,0.69237 z m 5.51529,-20.47076 c 0.72946,-1.78199 1.33951,-14.74856 1.02904,-21.87191 -0.10455,-2.39866 -0.18038,-2.45484 -0.95435,-0.70697 -0.82999,1.87439 -0.88447,1.86157 -4.24748,-0.99948 -3.14919,-2.67913 -4.03069,-2.94409 -11.66112,-3.50501 -8.50768,-0.625409 -16.091716,-3.148937 -16.63658,-5.53569 -0.178166,-0.78045 0.251577,-1.005007 1.245435,-0.650786 0.834606,0.297463 1.693459,0.540841 1.908562,0.540841 0.215102,0 0.391095,0.543531 0.391095,1.207846 0,0.898849 1.555048,1.229514 6.078538,1.292543 3.3432,0.04658 6.07854,-0.238124 6.07854,-0.632682 0,-0.394559 3.34452,-0.683061 7.43227,-0.641117 5.68116,0.05829 7.56315,0.383226 7.98774,1.379113 1.61333,3.784042 4.0719,6.953482 4.58308,5.908232 0.30424,-0.62211 0.32952,-0.28458 0.0562,0.75007 -0.27334,1.03465 -0.0591,2.13257 0.47621,2.43982 0.53526,0.30725 0.9732,1.70814 0.9732,3.11308 0,1.40495 0.42082,2.55445 0.93516,2.55445 0.51434,0 0.94161,-1.85657 0.94948,-4.1257 0.0104,-2.98394 0.26519,-3.76514 0.92084,-2.82284 1.33357,1.9166 1.12899,7.58759 -0.38693,10.72582 -0.72714,1.50534 -1.81183,4.20268 -2.41042,5.9941 -0.59858,1.79142 -1.50136,3.25713 -2.00616,3.25713 -0.50481,0 -0.64635,0.40798 -0.31455,0.90662 0.64301,0.96632 -1.1213,3.43622 -2.45458,3.43622 -0.43863,0 -0.42657,-0.90617 0.0268,-2.0137 z m 3.5181,-18.59825 c -0.2371,-0.84509 -0.44669,-0.36396 -0.46575,1.06918 -0.0191,1.43313 0.17494,2.12457 0.4311,1.53652 0.25616,-0.58805 0.27175,-1.76061 0.0346,-2.6057 z m -43.958417,2.59197 c -0.30756,-2.76777 -0.157538,-5.36032 0.336749,-5.81941 0.565108,-0.52486 0.891411,0.54144 0.891411,2.91298 0,3.18538 0.243026,3.6623 1.63653,3.21157 1.437619,-0.46501 1.461897,-0.39712 0.199751,0.5585 -0.790228,0.59831 -1.285399,1.77183 -1.10038,2.60783 0.185019,0.836 -0.05641,1.51999 -0.5365,1.51999 -0.480094,0 -1.122496,-2.24616 -1.427561,-4.99146 z M 129.69719,99.686337 c -1.1829,-1.829471 -1.16297,-1.84798 0.44732,-0.415462 0.92696,0.824625 1.48408,1.686275 1.23806,1.914775 -0.24603,0.22851 -1.00444,-0.44619 -1.68538,-1.499313 z"
         id="path7" />
      <path
         style="fill:#fac309"
         d="m 144.32625,189.19383 c -1.41763,-0.44293 -2.33964,-1.1628 -2.04891,-1.59971 0.29072,-0.43691 0.12502,-0.79438 -0.36824,-0.79438 -0.49326,0 -0.89684,-1.39891 -0.89684,-3.1087 0,-2.03826 -0.73234,-3.83272 -2.12684,-5.2114 -1.74381,-1.72402 -1.85079,-2.10271 -0.594,-2.10271 1.7682,0 3.46897,2.53759 3.46897,5.1758 0,1.99729 3.70323,3.80199 6.07042,2.9583 0.77597,-0.27657 1.41086,-0.10275 1.41086,0.38626 0,1.51325 -2.2182,1.72023 -4.90959,0.45812 -1.64994,-0.77373 -2.57169,-0.87165 -2.57169,-0.27318 0,0.51304 1.35224,1.46089 3.00498,2.10632 2.39097,0.93374 3.20307,0.95257 3.97443,0.0922 1.46002,-1.62858 6.77943,-3.34336 8.0712,-2.60185 0.72403,0.41561 0.89408,0.28844 0.46883,-0.35062 -0.46251,-0.69507 0.49748,-1.00277 3.12857,-1.00277 2.47172,0 3.79583,-0.39 3.79583,-1.11802 0,-0.61491 0.8774,-1.1794 1.94977,-1.25443 1.80368,-0.12619 1.8474,0.006 0.58344,1.76944 -0.93014,1.29743 -2.12157,1.82011 -3.73206,1.63727 -1.52025,-0.1726 -3.06561,0.42916 -4.32408,1.68377 -1.07709,1.0738 -1.95835,1.48781 -1.95835,0.92002 0,-0.56779 -0.6663,-1.03235 -1.48067,-1.03235 -2.23882,0 -1.03776,2.05004 1.55,2.64564 l 2.26857,0.52214 -2.21554,0.67891 c -1.37935,0.42267 -3.07765,0.25038 -4.49972,-0.4565 -1.63874,-0.81457 -2.7303,-0.87922 -3.863,-0.2288 -1.02439,0.58823 -2.48396,0.62379 -4.15634,0.10127 z m 15.89544,-1.60544 c 0.63846,-0.76052 0.88394,-1.63995 0.54551,-1.95428 -0.33843,-0.31433 -0.12437,-0.57151 0.47569,-0.57151 1.60107,0 1.32988,1.35045 -0.54551,2.7165 -1.44798,1.05471 -1.50278,1.03274 -0.47569,-0.19071 z m -22.97409,-2.79891 c -1.11833,-1.10564 -2.03333,-2.35291 -2.03333,-2.77171 0,-0.4188 0.59683,-0.003 1.32628,0.92318 0.72946,0.92655 1.64124,1.39211 2.02618,1.03458 0.38495,-0.35754 0.20894,-0.65006 -0.39112,-0.65006 -0.60006,0 -1.09102,-0.66446 -1.09102,-1.47657 0,-2.31278 2.06088,0.0442 2.37695,2.71845 0.32126,2.71828 0.31182,2.71922 -2.21394,0.22213 z m 7.31827,-4.93828 c 0,-3.12685 0.23379,-3.47427 2.3379,-3.47427 2.10411,0 2.3379,0.34742 2.3379,3.47427 0,3.12684 -0.23379,3.47427 -2.3379,3.47427 -2.10411,0 -2.3379,-0.34743 -2.3379,-3.47427 z m 7.27072,2.57065 c 1.66876,-0.62245 2.00444,-1.24824 1.55725,-2.90312 -0.35284,-1.30574 0.0338,-2.96566 1.01476,-4.35614 0.87166,-1.23559 1.34136,-2.83582 1.04378,-3.55608 -0.29758,-0.72026 -0.13343,-1.30956 0.36476,-1.30956 1.33739,0 1.10219,4.98153 -0.26314,5.57331 -0.93516,0.40533 -0.93516,0.608 0,1.01333 0.64292,0.27867 1.16895,0.88802 1.16895,1.35411 0,0.4661 -0.42082,0.60589 -0.93516,0.31065 -0.51434,-0.29525 -0.93516,-0.15546 -0.93516,0.31064 0,0.46609 0.52603,1.03059 1.16895,1.25444 1.64643,0.57324 -2.03206,3.16471 -4.44201,3.12936 -1.69271,-0.0248 -1.66831,-0.10278 0.25702,-0.82094 z m -19.03956,-4.53998 c -0.31572,-0.9239 -0.1114,-2.10949 0.45403,-2.63466 0.7473,-0.69408 1.02805,-0.55161 1.02805,0.52172 0,0.81211 0.42082,1.47656 0.93516,1.47656 0.51434,0 0.93516,0.52114 0.93516,1.15809 0,1.78926 -2.70663,1.36804 -3.3524,-0.52171 z m 32.03064,0.52171 c -0.34289,-0.31847 -0.57504,-1.97961 -0.5159,-3.69141 l 0.10755,-3.11236 0.72901,3.47427 c 0.76589,3.64996 0.705,4.28213 -0.32066,3.3295 z m 2.51482,-1.82281 c -0.58847,-0.35097 -1.37022,-3.62631 -1.73721,-7.27853 -0.5629,-5.60174 -0.98063,-6.77686 -2.67069,-7.51285 -1.82837,-0.79623 -1.75313,-0.86892 0.86112,-0.832 2.61532,0.0369 2.88399,0.31273 3.08801,3.17001 0.12291,1.72126 0.59287,5.27927 1.04437,7.90669 0.75312,4.3827 0.807,4.11375 0.65263,-3.25757 -0.0926,-4.41908 0.0938,-8.03449 0.41413,-8.03425 0.32032,2.4e-4 0.65692,3.71357 0.748,8.25183 0.16052,7.99772 -0.1366,8.93678 -2.40036,7.58667 z m -25.2594,-1.54415 c -0.30456,-0.73718 -0.29136,-1.58403 0.0293,-1.8819 0.32071,-0.29787 0.58311,0.13776 0.58311,0.96807 0,1.37241 0.1336,1.38557 1.46954,0.14476 1.30234,-1.20961 1.31089,-1.51224 0.0752,-2.65999 -0.84647,-0.78619 -1.5801,-0.94831 -1.86698,-0.41257 -0.25993,0.48539 -0.37673,0.41999 -0.25956,-0.14534 0.28643,-1.38203 4.05979,-1.85017 4.88744,-0.60637 0.42551,0.63947 0.24095,0.75056 -0.52065,0.31339 -0.85866,-0.49289 -1.01663,-0.19968 -0.58032,1.07713 0.36994,1.08259 0.0246,2.28831 -0.90177,3.14875 -1.86257,1.72993 -2.22017,1.73656 -2.91531,0.0541 z m -9.6743,-7.68673 c 0,-4.34951 0.33297,-5.67143 1.53659,-6.10041 1.87128,-0.66695 3.0579,0.20343 1.49806,1.09882 -0.61567,0.35341 -1.21988,2.87272 -1.34269,5.59846 -0.30537,6.77799 -1.69196,6.28885 -1.69196,-0.59687 z m 21.32748,1.02354 c -1.71437,-0.54061 -2.87061,-1.78361 -3.61945,-3.89107 l -1.10036,-3.09668 -5.45484,0.52954 c -3.33075,0.32334 -5.6847,0.18409 -6.04515,-0.3576 -0.78495,-1.17963 16.45052,-0.93349 18.03753,0.2576 1.66894,1.25258 1.44353,2.40399 -0.46758,2.38846 -1.39857,-0.0114 -1.43257,-0.13572 -0.23379,-0.85527 0.77151,-0.46308 1.12154,-0.84795 0.77786,-0.85526 -0.34369,-0.007 -1.1995,-0.2181 -1.90179,-0.46841 -0.92149,-0.32842 -1.26814,0.33291 -1.24544,2.37604 0.0235,2.11189 0.49906,2.91493 1.87202,3.16098 1.59789,0.28636 1.67527,0.14487 0.58687,-1.07318 -0.86346,-0.96632 -0.91783,-1.40303 -0.17467,-1.40303 1.18015,0 2.32295,2.09335 1.80989,3.31533 -0.18468,0.43988 -1.39627,0.42817 -2.8411,-0.0274 z m 3.48924,-6.70959 c -0.29864,-0.4488 0.2786,-0.75852 1.28276,-0.68826 1.00416,0.0702 1.61966,0.43745 1.36776,0.816 -0.62144,0.93391 -1.9879,0.86806 -2.65052,-0.12774 z"
         id="path6" />
      <path
         style="fill:#fabc09"
         d="m 147.84001,189.40381 c 0.67682,-1.01713 -3.94115,-2.86052 -5.2639,-2.10123 -1.39541,0.801 -3.57683,-1.33673 -2.93911,-2.88025 0.39476,-0.95547 0.21124,-1.17537 -0.59479,-0.71269 -0.6988,0.40113 -1.88615,-0.0491 -2.9644,-1.12405 -1.87751,-1.87176 -2.48453,-4.09917 -0.86354,-3.16868 0.51434,0.29525 0.93516,-0.0725 0.93516,-0.8173 0,-0.74477 -0.42082,-1.35412 -0.93516,-1.35412 -0.51434,0 -0.93516,-0.60935 -0.93516,-1.35411 0,-0.74476 -0.37298,-1.14001 -0.82884,-0.87833 -1.2016,0.68974 -1.94925,-2.64096 -1.96387,-8.74887 -0.009,-3.94949 0.35164,-5.4655 1.38997,-5.83557 0.77151,-0.27497 1.40274,-0.12136 1.40274,0.34136 0,0.46272 -0.42082,0.84131 -0.93516,0.84131 -0.52752,0 -0.93516,2.46094 -0.93516,5.64569 0,6.89717 1.38313,7.54458 1.68745,0.78985 0.21012,-4.6637 2.17705,-8.35746 3.43983,-6.45975 0.33772,0.50754 2.79764,0.64151 6.02555,0.32815 l 5.45484,-0.52954 1.0956,3.0833 c 0.7831,2.20386 1.8997,3.34366 3.91472,3.99608 2.59614,0.84057 2.79577,0.76557 2.52386,-0.9482 -0.1624,-1.02353 -0.9265,-2.05285 -1.69801,-2.28738 -1.23659,-0.37592 -1.24012,-0.24351 -0.0298,1.11785 1.24014,1.39487 1.1949,1.51175 -0.46758,1.20808 -1.23814,-0.22615 -1.84055,-1.04072 -1.84055,-2.48874 0,-1.1839 -0.34242,-2.64408 -0.76094,-3.24484 -0.60525,-0.8688 -0.26495,-0.8824 1.66306,-0.0665 1.75318,0.74191 2.09317,1.2208 1.22853,1.73042 -0.87511,0.51579 -0.75692,0.70818 0.44104,0.71792 1.90436,0.0155 2.10735,-0.93911 0.51434,-2.41869 -0.80832,-0.75076 -0.82376,-1.04228 -0.0552,-1.04228 0.58685,0 1.32708,0.39086 1.64496,0.86857 0.31788,0.47771 0.99878,0.86857 1.51312,0.86857 0.51434,0 0.69791,-0.35655 0.40794,-0.79232 -0.56579,-0.85027 0.61686,-0.78089 3.82928,0.22465 1.74829,0.54724 2.09547,1.52893 2.66903,7.54691 0.36262,3.80481 1.03634,6.91784 1.49714,6.91784 0.98366,0 0.98229,-3.81156 -0.004,-10.24735 -0.38774,-2.53091 -0.35702,-4.80139 0.0683,-5.04552 0.42529,-0.24413 0.77326,-0.007 0.77326,0.52722 0,0.5341 0.48584,0.6922 1.07965,0.35134 0.60461,-0.34706 0.82805,-0.24164 0.50784,0.23959 -0.3145,0.47263 -0.64252,4.4625 -0.72894,8.86638 -0.1557,7.93495 -1.45931,11.35102 -3.81552,9.9985 -0.51473,-0.29547 -0.85317,0.18951 -0.75208,1.07772 0.37831,3.32419 0.0171,3.91776 -2.01902,3.31755 -1.22154,-0.36009 -1.76608,-0.25321 -1.41303,0.27734 0.85666,1.28741 -1.80891,2.97123 -4.18989,2.64671 -2.40163,-0.32734 -3.59037,-2.45524 -1.3716,-2.45524 0.81437,0 1.49405,0.48857 1.51041,1.08571 0.0177,0.64547 0.5504,0.44788 1.31379,-0.48731 0.70622,-0.86515 2.48133,-1.90641 3.94469,-2.3139 2.4603,-0.6851 2.35721,-0.74651 -1.36898,-0.81555 -2.43514,-0.0451 -3.80355,0.26509 -3.45828,0.78397 0.31424,0.47224 10e-4,0.65541 -0.69562,0.40706 -1.58258,-0.56405 -8.18178,1.9273 -8.18178,3.08881 0,0.4713 0.81681,0.85691 1.81513,0.85691 0.99832,0 2.07521,0.39086 2.39309,0.86857 0.33811,0.50811 -0.63212,0.86857 -2.3379,0.86857 -1.70941,0 -2.67628,-0.36005 -2.33682,-0.8702 z m -5.77771,-3.9947 c -0.51816,-1.25415 -0.30877,-1.26585 2.13346,-0.11917 2.81063,1.31963 5.04591,1.1457 5.04591,-0.39265 0,-0.48901 -0.63489,-0.66283 -1.41086,-0.38626 -2.36719,0.84369 -6.07042,-0.96101 -6.07042,-2.9583 0,-2.63821 -1.70077,-5.1758 -3.46897,-5.1758 -1.25679,0 -1.14981,0.37869 0.594,2.10271 1.3945,1.37868 2.12684,3.17314 2.12684,5.2114 0,1.70979 0.36554,3.1087 0.8123,3.1087 0.44676,0 0.55375,-0.62579 0.23774,-1.39063 z m -3.10739,-2.90095 c 0,-0.44952 -0.42082,-1.05887 -0.93516,-1.35411 -0.51434,-0.29524 -0.93516,0.0725 -0.93516,0.81731 0,0.74476 0.42082,1.35411 0.93516,1.35411 0.51434,0 0.93516,-0.36779 0.93516,-0.81731 z m 10.28676,0.05 c 0,-0.42199 0.88399,-0.98197 1.96441,-1.24439 1.2502,-0.30365 1.70767,-0.86296 1.25825,-1.53835 -0.4514,-0.67837 -0.31665,-0.83765 0.37349,-0.44149 1.69204,0.97127 1.27279,2.23824 -1.02446,3.09586 -1.9205,0.71698 -1.9409,0.78792 -0.23379,0.81296 2.40995,0.0353 6.08844,-2.55612 4.44201,-3.12936 -0.64292,-0.22385 -1.16895,-0.78835 -1.16895,-1.25444 0,-0.4661 0.42082,-0.60589 0.93516,-0.31064 1.37357,0.78846 1.13898,-0.36906 -0.35625,-1.75782 -0.71028,-0.6597 -1.61939,-0.92492 -2.02025,-0.58938 -0.40086,0.33553 -0.43748,0.13856 -0.0814,-0.43772 0.3561,-0.57627 1.26521,-0.8276 2.02025,-0.55849 1.02274,0.36451 1.37279,-0.18883 1.37279,-2.17 0,-2.32989 -0.37645,-2.71438 -3.03927,-3.10422 -4.87905,-0.7143 -11.29619,-0.12175 -11.55121,1.06662 -0.12749,0.5941 -0.0191,0.68304 0.24079,0.19765 0.28688,-0.53574 1.02051,-0.37362 1.86698,0.41257 1.23574,1.14775 1.23496,1.44317 -0.007,2.59657 -1.2449,1.15625 -1.44894,1.13202 -1.82864,-0.21714 -0.38572,-1.37061 -0.43795,-1.37547 -0.53586,-0.0499 -0.15841,2.14482 1.38497,2.66577 3.12093,1.05343 0.93357,-0.86709 1.28105,-2.072 0.91037,-3.15674 -0.4228,-1.23727 -0.26838,-1.56431 0.5239,-1.10952 0.61787,0.35467 0.93453,1.56255 0.70368,2.68417 -0.23085,1.12162 0.0451,2.21751 0.61331,2.43532 0.56817,0.21781 0.0862,0.42687 -1.07108,0.46459 -1.81905,0.0593 -2.10411,0.53925 -2.10411,3.54284 0,3.12684 0.23379,3.47427 2.3379,3.47427 1.28585,0 2.3379,-0.34527 2.3379,-0.76727 z m 5.68479,-10.16221 c 0.0449,-1.01183 0.26646,-1.21764 0.56499,-0.52476 0.27014,0.627 0.23692,1.37614 -0.0738,1.66476 -0.31074,0.28861 -0.53177,-0.22438 -0.49116,-1.14 z m 10.22187,2.67809 -0.72901,-3.47427 -0.10755,3.11236 c -0.0591,1.7118 0.17301,3.37294 0.5159,3.69141 1.02566,0.95263 1.08655,0.32046 0.32066,-3.3295 z m -21.75141,-14.94435 c 1.15726,-0.20702 3.05096,-0.20702 4.20822,0 1.15726,0.20703 0.21041,0.37641 -2.10411,0.37641 -2.31452,0 -3.26137,-0.16938 -2.10411,-0.37641 z"
         id="path5" />
      <path
         style="fill:#f42f32"
         d="m 104.32523,174.62438 c -8.294342,-0.91367 -14.650705,-2.76955 -22.341169,-6.523 -8.900373,-4.34397 -10.0084,-5.60088 -8.649915,-9.81222 2.507241,-7.77251 9.6933,-13.0457 18.826285,-13.81488 4.932964,-0.41545 5.557604,-0.27606 6.5602,1.4639 1.603939,2.78358 6.557779,4.38172 13.582219,4.38172 6.93124,0 11.9754,-1.59313 13.51745,-4.26931 0.80646,-1.39958 1.9382,-1.80764 4.98486,-1.79736 2.16784,0.007 4.40409,0.30045 4.96945,0.65142 1.40987,0.87524 0.53917,15.90799 -0.91213,15.74806 -3.0977,-0.34138 -3.38885,0.18342 -3.38885,6.10839 v 6.0184 l -4.90959,0.86889 c -7.69196,1.36131 -15.593,1.70806 -22.23881,0.97599 z m 41.40959,-14.51764 -3.97443,-0.33248 v -6.03003 c 0,-6.35607 0.66822,-7.14653 3.67811,-4.35097 4.06353,3.77416 7.78563,11.52923 5.37442,11.19771 -0.60702,-0.0835 -2.89216,-0.30137 -5.0781,-0.48423 z"
         id="path4" />
      <path
         style="fill:#684a48"
         d="m 89.034933,106.67438 c -0.283849,-2.9857 -0.78597,-7.54632 -1.115824,-10.134707 -0.717846,-5.632971 0.526043,-9.997149 4.042429,-14.182846 1.415301,-1.684691 3.179283,-3.872325 3.919959,-4.861409 2.3149,-3.091269 5.943753,-3.874014 15.745013,-3.396203 10.69587,0.521423 18.28962,2.119633 17.63216,3.710934 -0.24718,0.59827 0.77383,2.176256 2.26891,3.506635 4.07438,3.625538 5.85692,8.757236 5.15801,14.84927 -0.32053,2.793878 -0.81861,7.522626 -1.10685,10.508326 -0.28823,2.9857 -0.90897,5.42855 -1.37942,5.42855 -0.47045,0 -0.85537,-0.76248 -0.85537,-1.69439 0,-4.19848 -2.14454,-10.3237 -4.40843,-12.591353 l -2.46163,-2.465704 -11.52272,0.572136 c -9.31986,0.462757 -12.18446,0.315331 -14.984148,-0.771152 -3.363791,-1.305398 -3.528612,-1.280887 -5.843306,0.868978 -2.07638,1.928522 -2.425367,3.101696 -2.720941,9.146875 -0.186484,3.81403 -0.679417,6.93461 -1.095407,6.93461 -0.415991,0 -0.988586,-2.44285 -1.272435,-5.42855 z"
         id="path3" />
      <path
         style="fill:#984908"
         d="m 149.24167,179.22003 c 0,-1.37262 -0.45372,-2.91709 -1.00827,-3.43215 -0.55454,-0.51505 -0.87016,-2.05893 -0.70137,-3.43084 0.27282,-2.21737 0.67038,-2.49437 3.57996,-2.49437 2.70562,0 3.32604,0.34709 3.57864,2.00208 0.16806,1.10115 -0.21346,2.58296 -0.84785,3.29291 -0.63438,0.70995 -1.21422,2.34807 -1.28854,3.64026 -0.19565,3.40171 -3.31257,3.79889 -3.31257,0.42211 z m -13.09224,-23.58015 c 0,-7.52769 0.7905,-10.02703 4.24829,-13.43189 5.86261,-5.77286 13.73011,-5.9884 20.32121,-0.55671 l 3.95288,3.25754 0.32684,7.91695 0.32683,7.91694 h -2.43094 c -2.40128,0 -2.43095,-0.0793 -2.43095,-6.50055 0,-5.94471 -0.2317,-6.74141 -2.70978,-9.31736 -2.24246,-2.33104 -3.38788,-2.81681 -6.64182,-2.81681 -3.25393,0 -4.39936,0.48577 -6.64182,2.81681 -2.47807,2.57595 -2.70978,3.37265 -2.70978,9.31736 v 6.50055 h -2.80548 c -2.79885,0 -2.80548,-0.0121 -2.80548,-5.10283 z"
         id="path2" />
    </g>
  </g>
</svg>
